<svg viewBox="0 0 1400 1800" xmlns="http://www.w3.org/2000/svg">
  <!-- Stili -->
  <defs>
    <style>
      .title { font: bold 16px Arial; fill: #2c3e50; }
      .activity-name { font: 12px Arial; fill: #34495e; }
      .phase-name { font: 10px Arial; fill: #7f8c8d; }
      .date-label { font: 10px Arial; fill: #2c3e50; }
      .grid-line { stroke: #ecf0f1; stroke-width: 1; }
      .month-separator { stroke: #bdc3c7; stroke-width: 2; }
      .task-bar { fill: #3498db; stroke: #2980b9; stroke-width: 1; }
      .task-bar-draft { fill: #e74c3c; }
      .task-bar-final { fill: #27ae60; }
      .task-bar-premio { fill: #f39c12; }
      .task-bar-other { fill: #9b59b6; }
    </style>
  </defs>
  
  <!-- Titolo -->
  <text x="700" y="25" class="title" text-anchor="middle">Diagramma di Gantt - Cronoprogramma Attività 2025</text>
  
  <!-- Header con mesi -->
  <g transform="translate(300, 50)">
    <!-- Agosto -->
    <text x="40" y="15" class="date-label" text-anchor="middle">Agosto</text>
    <line x1="0" y1="20" x2="80" y2="20" class="month-separator"/>
    
    <!-- Settembre -->
    <text x="140" y="15" class="date-label" text-anchor="middle">Settembre</text>
    <line x1="80" y1="20" x2="200" y2="20" class="month-separator"/>
    
    <!-- Ottobre -->
    <text x="260" y="15" class="date-label" text-anchor="middle">Ottobre</text>
    <line x1="200" y1="20" x2="320" y2="20" class="month-separator"/>
    
    <!-- Novembre -->
    <text x="380" y="15" class="date-label" text-anchor="middle">Novembre</text>
    <line x1="320" y1="20" x2="440" y2="20" class="month-separator"/>
    
    <!-- Dicembre -->
    <text x="500" y="15" class="date-label" text-anchor="middle">Dicembre</text>
    <line x1="440" y1="20" x2="560" y2="20" class="month-separator"/>
  </g>
  
  <!-- Griglia verticale -->
  <g transform="translate(300, 70)">
    <!-- Linee settimanali -->
    <line x1="20" y1="0" x2="20" y2="1700" class="grid-line"/>
    <line x1="40" y1="0" x2="40" y2="1700" class="grid-line"/>
    <line x1="60" y1="0" x2="60" y2="1700" class="grid-line"/>
    <line x1="80" y1="0" x2="80" y2="1700" class="grid-line"/>
    <line x1="120" y1="0" x2="120" y2="1700" class="grid-line"/>
    <line x1="160" y1="0" x2="160" y2="1700" class="grid-line"/>
    <line x1="200" y1="0" x2="200" y2="1700" class="grid-line"/>
    <line x1="240" y1="0" x2="240" y2="1700" class="grid-line"/>
    <line x1="280" y1="0" x2="280" y2="1700" class="grid-line"/>
    <line x1="320" y1="0" x2="320" y2="1700" class="grid-line"/>
    <line x1="360" y1="0" x2="360" y2="1700" class="grid-line"/>
    <line x1="400" y1="0" x2="400" y2="1700" class="grid-line"/>
    <line x1="440" y1="0" x2="440" y2="1700" class="grid-line"/>
    <line x1="480" y1="0" x2="480" y2="1700" class="grid-line"/>
    <line x1="520" y1="0" x2="520" y2="1700" class="grid-line"/>
    <line x1="560" y1="0" x2="560" y2="1700" class="grid-line"/>
  </g>
  
  <!-- Attività e barre -->
  
  <!-- 1. Matrice di Analisi (Excel) -->
  <text x="10" y="95" class="activity-name">Matrice di Analisi (Excel)</text>
  <text x="20" y="110" class="phase-name">• Bozza</text>
  <rect x="320" y="105" width="70" height="12" class="task-bar task-bar-draft" rx="2"/>
  <text x="20" y="125" class="phase-name">• Definitivo</text>
  <rect x="410" y="120" width="60" height="12" class="task-bar task-bar-final" rx="2"/>
  
  <!-- 2. Materiali per la Formazione dei Clienti -->
  <text x="10" y="155" class="activity-name">Materiali Formazione Clienti</text>
  <text x="20" y="170" class="phase-name">• Bozza</text>
  <rect x="340" y="165" width="68" height="12" class="task-bar task-bar-draft" rx="2"/>
  <text x="20" y="185" class="phase-name">• Definitivo</text>
  <rect x="409" y="180" width="61" height="12" class="task-bar task-bar-final" rx="2"/>
  
  <!-- 3. Bozza di Policy e Procedure -->
  <text x="10" y="215" class="activity-name">Policy e Procedure</text>
  <text x="20" y="230" class="phase-name">• Bozza</text>
  <rect x="380" y="225" width="90" height="12" class="task-bar task-bar-draft" rx="2"/>
  <text x="20" y="245" class="phase-name">• Definitivo</text>
  <rect x="500" y="240" width="60" height="12" class="task-bar task-bar-final" rx="2"/>
  
  <!-- 4. Documento per l'Audit -->
  <text x="10" y="275" class="activity-name">Documento per l'Audit</text>
  <text x="20" y="290" class="phase-name">• Bozza</text>
  <rect x="380" y="285" width="90" height="12" class="task-bar task-bar-draft" rx="2"/>
  <text x="20" y="305" class="phase-name">• Definitivo</text>
  <rect x="500" y="300" width="60" height="12" class="task-bar task-bar-final" rx="2"/>
  
  <!-- 5. Schema per il Report Finale -->
  <text x="10" y="335" class="activity-name">Schema Report Finale</text>
  <text x="20" y="350" class="phase-name">• Bozza</text>
  <rect x="500" y="345" width="60" height="12" class="task-bar task-bar-draft" rx="2"/>
  <text x="20" y="365" class="phase-name">• Definitivo</text>
  <rect x="580" y="360" width="64" height="12" class="task-bar task-bar-final" rx="2"/>
  
  <!-- 6. Master Deck Promozionale -->
  <text x="10" y="395" class="activity-name">Master Deck Promozionale</text>
  <text x="20" y="410" class="phase-name">• Bozza</text>
  <rect x="320" y="405" width="70" height="12" class="task-bar task-bar-draft" rx="2"/>
  <text x="20" y="425" class="phase-name">• Definitivo</text>
  <rect x="410" y="420" width="60" height="12" class="task-bar task-bar-final" rx="2"/>
  
  <!-- 7. Articoli Tecnici -->
  <text x="10" y="455" class="activity-name">Articoli Tecnici</text>
  <text x="20" y="470" class="phase-name">• Articolo 1</text>
  <rect x="340" y="465" width="68" height="12" class="task-bar task-bar-other" rx="2"/>
  <text x="20" y="485" class="phase-name">• Articolo 2</text>
  <rect x="409" y="480" width="61" height="12" class="task-bar task-bar-other" rx="2"/>
  
  <!-- 8. Ingaggio agenzie promozione -->
  <text x="10" y="515" class="activity-name">Ingaggio Agenzie Promozione</text>
  <rect x="340" y="515" width="72" height="12" class="task-bar task-bar-other" rx="2"/>
  
  <!-- 9. Corso interno collaboratori -->
  <text x="10" y="545" class="activity-name">Corso Interno Collaboratori</text>
  <rect x="380" y="545" width="90" height="12" class="task-bar task-bar-other" rx="2"/>
  
  <!-- 10. Corso Breton -->
  <text x="10" y="575" class="activity-name">Corso Breton</text>
  <rect x="380" y="575" width="90" height="12" class="task-bar task-bar-other" rx="2"/>
  
  <!-- 11. Webinar Factory Software -->
  <text x="10" y="605" class="activity-name">Webinar Factory Software</text>
  <rect x="384" y="605" width="88" height="12" class="task-bar task-bar-other" rx="2"/>
  
  <!-- 12. Audit Breton -->
  <text x="10" y="635" class="activity-name">Audit Breton</text>
  <rect x="500" y="635" width="60" height="12" class="task-bar task-bar-other" rx="2"/>
  
  <!-- 13. Fiera A&T -->
  <text x="10" y="665" class="activity-name">Fiera A&amp;T</text>
  <rect x="500" y="665" width="60" height="12" class="task-bar task-bar-other" rx="2"/>
  
  <!-- 14. Corso Starpool -->
  <text x="10" y="695" class="activity-name">Corso Starpool</text>
  <rect x="500" y="695" width="60" height="12" class="task-bar task-bar-other" rx="2"/>
  
  <!-- 15. Relazione Piovan -->
  <text x="10" y="725" class="activity-name">Relazione Piovan</text>
  <rect x="580" y="725" width="64" height="12" class="task-bar task-bar-other" rx="2"/>
  
  <!-- 16. Secondo corso Fenice -->
  <text x="10" y="755" class="activity-name">Secondo Corso Fenice</text>
  <rect x="660" y="755" width="120" height="12" class="task-bar task-bar-other" rx="2"/>
  
  <!-- 17. Corso Factory -->
  <text x="10" y="785" class="activity-name">Corso Factory</text>
  <rect x="660" y="785" width="120" height="12" class="task-bar task-bar-other" rx="2"/>
  
  <!-- PREMI (in fondo) -->
  <text x="10" y="825" class="activity-name" style="font-weight: bold;">PREMI (Scadenza 31/12/2025):</text>
  
  <!-- Premio JSON Matrice Analisi -->
  <text x="10" y="855" class="activity-name">JSON Matrice di Analisi</text>
  <rect x="780" y="855" width="80" height="12" class="task-bar task-bar-premio" rx="2"/>
  
  <!-- Premio Formazione -->
  <text x="10" y="885" class="activity-name">Erogazione Corsi Formazione</text>
  <rect x="780" y="885" width="80" height="12" class="task-bar task-bar-premio" rx="2"/>
  
  <!-- Premio Policy Siemens/Intouch/txOne -->
  <text x="10" y="915" class="activity-name">Policy Siemens/Intouch/txOne</text>
  <rect x="780" y="915" width="80" height="12" class="task-bar task-bar-premio" rx="2"/>
  
  <!-- Premio Audit Breton -->
  <text x="10" y="945" class="activity-name">Audit Cliente Pilota Breton</text>
  <rect x="780" y="945" width="80" height="12" class="task-bar task-bar-premio" rx="2"/>
  
  <!-- Premio Report Finale Breton -->
  <text x="10" y="975" class="activity-name">Report Finale Breton</text>
  <rect x="780" y="975" width="80" height="12" class="task-bar task-bar-premio" rx="2"/>
  
  <!-- Premio Logbot Master Deck -->
  <text x="10" y="1005" class="activity-name">Strumenti Logbot in Master Deck</text>
  <rect x="780" y="1005" width="80" height="12" class="task-bar task-bar-premio" rx="2"/>
  
  <!-- Premio Whitepaper Sole 24 Ore -->
  <text x="10" y="1035" class="activity-name">Whitepaper Il Sole 24 Ore</text>
  <rect x="780" y="1035" width="80" height="12" class="task-bar task-bar-premio" rx="2"/>
  
  <!-- Legenda -->
  <g transform="translate(900, 100)">
    <text x="0" y="15" class="activity-name" style="font-weight: bold;">Legenda:</text>
    <rect x="0" y="25" width="20" height="12" class="task-bar task-bar-draft" rx="2"/>
    <text x="25" y="35" class="phase-name">Bozza</text>
    
    <rect x="0" y="45" width="20" height="12" class="task-bar task-bar-final" rx="2"/>
    <text x="25" y="55" class="phase-name">Definitivo</text>
    
    <rect x="0" y="65" width="20" height="12" class="task-bar task-bar-other" rx="2"/>
    <text x="25" y="75" class="phase-name">Altre Attività</text>
    
    <rect x="0" y="85" width="20" height="12" class="task-bar task-bar-premio" rx="2"/>
    <text x="25" y="95" class="phase-name">Premi (31/12)</text>
  </g>
  
  <!-- Note -->
  <text x="10" y="1080" class="phase-name">Note: Data di estrazione scadenze: 14 Agosto 2025</text>
  <text x="10" y="1095" class="phase-name">Inizio attività calcolato: 20 giorni prima della scadenza</text>
  <text x="10" y="1110" class="phase-name">Step successivi iniziano il giorno dopo la scadenza del precedente</text>
</svg>